<svg xmlns="http://www.w3.org/2000/svg" viewBox="832.9 155 250 250" enable-background="new 832.9 155 250 250"><style type="text/css">.st0{fill:#020202;}</style><path class="st0" d="M936.9 386.6c-7.1 2.2-14.9 3.4-22.9 3.4-9.1 0-17.6-1.2-25.8-3.4-15.6-4.4-27.2-12.7-32.5-23.4-2.4-4.6-3.5-9.5-3.5-14.7s1.1-10.7 3.5-15.9c8.5-20.2 31-33.9 56.1-33.9h.7c-2-4-3.1-8.1-3.1-12.5 0-2.2.2-4.4.7-6.7-26.3-.2-45.9-21.6-45.9-49.8 0-20 14.3-39.2 34.6-47 6.2-2.4 12.3-3.6 18.5-3.6h56.1c2 0 3.6 1.4 4.2 3.4.5 2 0 4.2-1.6 5.4l-12.5 10.1c-.7.6-1.6 1-2.5 1h-4.5c5.8 7.7 9.3 18.8 9.3 31.1 0 13.7-6.2 26.7-17.4 36.3-8.7 7.5-9.1 9.7-9.1 13.9.2 2.4 6.2 10.1 12.9 15.3 15.6 12.3 21.4 24.4 21.4 44.6-.1 21.2-14.4 39.4-36.7 46.4zm126.6-106.8c0 2.6-2 4.8-4.3 4.8h-31.7v35.5c0 2.6-2 4.8-4.3 4.8h-9.1c-2.4 0-4.3-2.2-4.3-4.8v-35.5h-32.1c-2.4 0-4.3-2.2-4.3-4.8v-10.1c0-2.6 2-4.8 4.3-4.8h31.9v-35.5c0-2.6 2-4.8 4.3-4.8h9.1c2.4 0 4.3 2.2 4.3 4.8v35.3h31.7c2.4 0 4.3 2.2 4.3 4.8l.2 10.3zm-143.7-16.1c4.5 0 8.3-2 11.4-5.9 4.7-5.9 6.7-15.7 5.4-26-2.2-18.6-14-33.9-26.5-34.3h-.5c-4.3 0-8.3 2-11.2 5.9-4.7 5.9-6.5 15.1-5.3 25.4 2.2 18.4 14.3 34.3 26.5 34.7h.2v.2zm13.6 55.7l-3.8-2.8c-3.8-1.2-7.8-2-12-2h-.5c-19 0-35.7 12.9-35.7 27.5 0 15.9 14.3 28.5 32.7 28.5 24.1 0 36.3-9.3 36.3-27.5 0-1.8-.2-3.4-.5-5.2-1.8-7.4-7.6-11.8-16.5-18.5z"/></svg>