<svg xmlns="http://www.w3.org/2000/svg" viewBox="-354 156 250 250" enable-background="new -354 156 250 250"><style type="text/css">.st0{fill:#FEFEFE;} .st1{fill:#FDFDFD;} .st2{fill:#E2E2E2;} .st3{fill:#F7F7F7;} .st4{fill:#F6F6F6;}</style><g id="EnjpRR.tif"><path d="M-257 368.5c0-8.7-.1-17.4-.1-26 0-30 0-59.9-.1-89.9 0-2 .6-2.3 2.4-2.3 11.5.1 23.1.1 34.6 0 1.7 0 2.3.4 2.2 2.2-.1 4.5 0 9.1 0 13.6.8.2.9-.4 1.2-.8 10-14.8 24.4-19.6 41.3-17.3 20.6 2.9 33.5 16.5 36.9 37.9.5 3.1.7 6.2 1.1 9.4.1.6-.3 1.4.6 1.6v.6c-.6 1-.3 2.1-.3 3.1v64.8c0 1 .2 2.1-.2 3.1-.3.1-.5.3-.8.3h-37c-.7 0-1.3-.1-1.9-.5-1.1-1.4-.8-3.1-.8-4.7v-61.2c0-3.7-.5-7.2-1.7-10.7-3.2-9.4-11.5-14-21.3-11.8-10 2.3-16.4 10.7-16.5 22.2-.1 10.2 0 20.4 0 30.6v31.8c0 1.5.4 3.1-1 4.3l-37.4.1c-.3-.1-.8 0-1.2-.4z"/><path class="st0" d="M-218.1 368.5l.1-24.9v-41.5c0-5.8 1.4-11.1 5.1-15.7 5.6-6.9 14.7-9.7 23.2-6.9 6.6 2.1 9.8 7.2 11.7 13.4 1.1 3.8 1.4 7.7 1.4 11.6v61.8c0 .5-.1.9-.2 1.4.2.5.3.9-.1 1.3h-41.2c-.2-.1-.3-.3-.2-.4l.2-.1z"/><path class="st1" d="M-321.2 212.2v-18c0-1.2.2-1.5 1.5-1.5 6.6.1 13.2 0 19.8 0 .2.3.2.5 0 .8-1.2.8-2.5.8-3.8 1.1-8.2 1.9-13.8 6.6-15.6 15.2-.2.8-.4 1.7-1 2.4-.3.2-.6.2-.9 0z"/><path class="st2" d="M-137.5 368.5l.1-43.1v-25.4c0-.8-.6-1.9.6-2.5v71c-.2.3-.5.3-.7 0z"/><path class="st3" d="M-137.5 368.5c.2 0 .5 0 .7.1-.5 1.2-1.5.5-2.3.5h-37.8c0-.4 0-.9.1-1.3.6 1.1 1.7.7 2.6.7h36.7zM-278.9 368.4l.1.8h-39.5c0-.2 0-.5.1-.7 1.1-.9 2.3-.8 3.5-.8h32.3c1.2 0 2.4-.2 3.5.7zM-218.1 368.5v.6h-38.9v-.6h38.9z"/><path class="st4" d="M-300 193.3v-.5h2.9v.5c-1 .9-1.9.9-2.9 0zM-321.2 212.2h.5c.9 1 .9 1.9 0 2.9h-.6c.1-1 .1-1.9.1-2.9z"/><path d="M-278.9 368.4h-39.4c0-38.5 0-77.1-.1-115.6 0-2 .5-2.5 2.5-2.5 11.4.1 22.9.1 34.3 0 2.3 0 2.6.7 2.6 2.8.1 38.4.1 76.8.1 115.3zM-320.7 215.1v-2.9c2.2-11.9 7.8-17.1 20.7-18.9h2.9c6.2.6 11.9 2.3 15.9 7.3 5.1 6.3 6.2 13.5 3.4 20.9-2.9 7.5-9 11.3-16.8 12.4-3.9.5-7.8.5-11.6-.8-8.8-2.8-13.4-9-14.5-18z"/></g></svg>