<?xml version="1.0" encoding="utf-8"?>
<!-- Generator: Adobe Illustrator 19.1.0, SVG Export Plug-In . SVG Version: 6.00 Build 0)  -->
<svg version="1.1" id="Layer_1" xmlns="http://www.w3.org/2000/svg" xmlns:xlink="http://www.w3.org/1999/xlink" x="0px" y="0px"
	 viewBox="-354 156 250 250" style="enable-background:new -354 156 250 250;" xml:space="preserve">
<style type="text/css">
	.st0{fill:#FEFEFE;}
	.st1{fill:#FDFDFD;}
	.st2{fill:#E2E2E2;}
	.st3{fill:#F7F7F7;}
	.st4{fill:#F6F6F6;}
</style>
<g id="EnjpRR.tif">
	<g>
		<path d="M-257,368.5c0-8.7-0.1-17.4-0.1-26c0-30,0-59.9-0.1-89.9c0-2,0.6-2.3,2.4-2.3c11.5,0.1,23.1,0.1,34.6,0
			c1.7,0,2.3,0.4,2.2,2.2c-0.1,4.5,0,9.1,0,13.6c0.8,0.2,0.9-0.4,1.2-0.8c10-14.8,24.4-19.6,41.3-17.3c20.6,2.9,33.5,16.5,36.9,37.9
			c0.5,3.1,0.7,6.2,1.1,9.4c0.1,0.6-0.3,1.4,0.6,1.6c0,0.2,0,0.4,0,0.6c-0.6,1-0.3,2.1-0.3,3.1c0,21.6,0,43.2,0,64.8
			c0,1,0.2,2.1-0.2,3.1c-0.3,0.1-0.5,0.3-0.8,0.3c-12.3,0-24.6,0-37,0c-0.7,0-1.3-0.1-1.9-0.5c-1.1-1.4-0.8-3.1-0.8-4.7
			c0-20.4,0-40.8,0-61.2c0-3.7-0.5-7.2-1.7-10.7c-3.2-9.4-11.5-14-21.3-11.8c-10,2.3-16.4,10.7-16.5,22.2c-0.1,10.2,0,20.4,0,30.6
			c0,10.6,0,21.2,0,31.8c0,1.5,0.4,3.1-1,4.3c-12.5,0.1-24.9,0-37.4,0.1C-256.1,368.8-256.6,368.9-257,368.5z"/>
		<path class="st0" d="M-218.1,368.5c0-8.3,0.1-16.6,0.1-24.9c0-13.8,0-27.7,0-41.5c0-5.8,1.4-11.1,5.1-15.7
			c5.6-6.9,14.7-9.7,23.2-6.9c6.6,2.1,9.8,7.2,11.7,13.4c1.1,3.8,1.4,7.7,1.4,11.6c0,20.6,0,41.2,0,61.8c0,0.5-0.1,0.9-0.2,1.4
			c0.2,0.5,0.3,0.9-0.1,1.3c-13.7,0-27.5,0-41.2,0c-0.2-0.1-0.3-0.3-0.2-0.4C-218.2,368.6-218.2,368.5-218.1,368.5z"/>
		<path class="st1" d="M-321.2,212.2c0-6,0-12,0-18c0-1.2,0.2-1.5,1.5-1.5c6.6,0.1,13.2,0,19.8,0c0.2,0.3,0.2,0.5,0,0.8
			c-1.2,0.8-2.5,0.8-3.8,1.1c-8.2,1.9-13.8,6.6-15.6,15.2c-0.2,0.8-0.4,1.7-1,2.4C-320.6,212.4-320.9,212.4-321.2,212.2z"/>
		<path class="st2" d="M-137.5,368.5c0-14.4,0.1-28.7,0.1-43.1c0-8.5,0-16.9,0-25.4c0-0.8-0.6-1.9,0.6-2.5c0,23.7,0,47.3,0,71
			C-137,368.8-137.3,368.8-137.5,368.5z"/>
		<path class="st3" d="M-137.5,368.5c0.2,0,0.5,0,0.7,0.1c-0.5,1.2-1.5,0.5-2.3,0.5c-12.6,0-25.2,0-37.8,0c0-0.4,0-0.9,0.1-1.3
			c0.6,1.1,1.7,0.7,2.6,0.7C-162,368.5-149.7,368.5-137.5,368.5z"/>
		<path class="st3" d="M-278.9,368.4c0,0.3,0.1,0.5,0.1,0.8c-13.2,0-26.3,0-39.5,0c0-0.2,0-0.5,0.1-0.7c1.1-0.9,2.3-0.8,3.5-0.8
			c10.8,0,21.5,0,32.3,0C-281.2,367.7-280,367.5-278.9,368.4z"/>
		<path class="st3" d="M-218.1,368.5c0,0.2,0,0.4,0,0.6c-13,0-26,0-38.9,0c0-0.2,0-0.4,0-0.6C-244.1,368.5-231.1,368.5-218.1,368.5z
			"/>
		<path class="st4" d="M-300,193.3c0-0.2,0-0.3,0-0.5c1,0,1.9,0,2.9,0c0,0.2,0,0.3,0,0.5C-298.1,194.2-299,194.2-300,193.3z"/>
		<path class="st4" d="M-321.2,212.2c0.2,0,0.3,0,0.5,0c0.9,1,0.9,1.9,0,2.9l-0.3,0l-0.3,0C-321.2,214.1-321.2,213.2-321.2,212.2z"
			/>
		<path d="M-278.9,368.4c-13.1,0-26.2,0-39.4,0c0-38.5,0-77.1-0.1-115.6c0-2,0.5-2.5,2.5-2.5c11.4,0.1,22.9,0.1,34.3,0
			c2.3,0,2.6,0.7,2.6,2.8C-278.9,291.5-278.9,329.9-278.9,368.4z"/>
		<path d="M-320.7,215.1c0-1,0-1.9,0-2.9c2.2-11.9,7.8-17.1,20.7-18.9c1,0,1.9,0,2.9,0c6.2,0.6,11.9,2.3,15.9,7.3
			c5.1,6.3,6.2,13.5,3.4,20.9c-2.9,7.5-9,11.3-16.8,12.4c-3.9,0.5-7.8,0.5-11.6-0.8C-315,230.3-319.6,224.1-320.7,215.1z"/>
	</g>
</g>
</svg>
